<svg height="56" viewBox="0 0 56 56" width="56" xmlns="http://www.w3.org/2000/svg"><path d="m39.3578346.15030326c.1906407.08822195 4.6943768 2.21212923 5.9857679 6.40272777.9218128 2.987724-.0797344 6.03723687-.7718597 7.62456277.8593597 1.0873272 1.6244381 2.2465927 2.264829 3.4789117 2.1709852-3.0265372 6.154971-4.1581426 6.3345648-4.2090013.8090472-.2270795 1.6518913.1960735 1.9642664.9834907.0785313.199308 1.9033445 4.9046276.0031719 8.846844-1.3345943 2.7711285-4.2591735 4.2696748-5.8463147 4.9464521-.0238438 1.2990153-.1561876 2.5807431-.4015158 3.8406105 2.9245792-.5479575 5.8061741.1632832 5.9597366.211242.7978909.256524 1.2801255 1.0832005 1.1183598 1.9196919-.0416719.2091228-1.1788442 5.3070356-4.8815174 7.5501708-2.2163759 1.3428474-5.0472207 1.4757938-7.5864716.9612958-.7954847.8603593-1.6364694 1.6656216-2.5450478 2.3748547.7878284.2315408 1.5757662.5460615 2.3113133 1.0439412.5979534.4045272 1.1170473.8805465 1.5671256 1.3937061 2.2531258 2.5691437 2.778126 6.0718118 2.8020792 6.2488134.1202031.8430717-.4005314 1.6452111-1.209688 1.8592414-.9498128.2532896-2.0444382.3862359-3.1684855.370956-1.9159226-.0262101-3.9174859-.4832689-5.4335333-1.509588-2.2588133-1.5294408-3.3911731-4.0721514-3.9292983-5.8031308-1.8991882.5575493-3.8750484.8773121-5.8952054.8773121-2.0495788 0-4.0535483-.3271239-5.9764709-.8999531-.530469 1.7342138-1.6312194 4.2206007-3.8287827 5.7458032-1.5238131 1.0594442-3.5230794 1.5294408-5.4029083 1.5809686-1.1520473.0315636-2.2592508-.0941331-3.18467302-.3376079-.81232843-.2058884-1.34257863-.999886-1.23210984-1.8445191.00179606-.0140267.00649275-.0489772.01472518-.1027387l.03593966-.2156046c.17001643-.9522199.81458384-3.8043146 2.70449242-5.9920359.4383752-.5074714.9437972-.979141 1.5257818-1.3831105.7378441-.5140518 1.5319069-.8418449 2.3265165-1.0837582-.8680003-.6833577-1.6734381-1.4544911-2.4375321-2.2767064-2.55784473.5227514-5.44020518.3865706-7.67397164-.9869482-3.22016409-1.9781822-4.4761367-6.112576-4.77090567-7.2747499l-.03639169-.1482614c-.01984192-.0839023-.03100065-.1371334-.03440756-.154931-.15706256-.8381644.33009387-1.6614949 1.12951604-1.9131115.15104693-.0504125 3.03581363-.7444773 5.95558034-.180236-.24850009-1.2682324-.38193764-2.5586597-.40600015-3.8661514-1.58539121-.6763312-4.51565793-2.1765505-5.85025217-4.9535902-1.89700071-3.9438894-.06890628-8.647536.009625-8.8452825.31565637-.7890902 1.15521918-1.2122433 1.96590698-.9834908.17959382.0523086 4.1604078 1.1842487 6.32909611 4.2106744.63142211-1.2153662 1.38425051-2.358571 2.22884461-3.4321797-.6831565-1.5672502-1.71729755-4.68424001-.7624534-7.71546156 1.3186254-4.18412968 5.8351584-6.27691948 6.0257991-6.36357998.7690159-.3479804 1.6630475-.05230859 2.0844695.68291153.1057657.18458575 2.579501 4.56802344 1.2624067 8.75048013-1.1018441 3.49631078-4.4062829 5.51192028-5.5843614 6.13728118-3.23422 3.7746951-4.70061116 8.8724963-4.45943919 11.7825939.00363032.0437586.00331814.1262417.00279789.2444956l-.0003545.2508515c.00448095 1.2489015.1326255 4.5662798 2.1566199 8.5504703 3.2523762 6.0524052 9.339316 9.6717359 15.8827849 9.6717359 6.5980516 0 12.739132-3.6907113 15.9693051-9.8374727 1.9342833-3.9069044 2.0638539-7.1293357 2.0693473-8.3625136l-.0000621-.43022c.0004321-.0301297.0012556-.0541783.0027156-.0719555.2179844-2.6535736-1.0295473-7.7182498-4.3671267-11.6831072-1.0147816-.5276588-4.5916735-2.6097415-5.7209708-6.26833155-1.2929224-4.19059854 1.2096879-8.55931397 1.3169848-8.74389973.4245939-.73198569 1.3186255-1.02442306 2.0876414-.66986226zm-18.5087673 23.94584724c.5062612 0 .916667.422524.916667.9437338v10.381072c0 .5212098-.4104058.9437338-.916667.9437338h-2.9791678c-.5062612 0-.916667-.422524-.916667-.9437338v-10.381072c0-.5212098.4104058-.9437338.916667-.9437338zm7.8109166-9.7927889c1.59906-.2267702 1.923402 1.3332044 2.2598998 2.9744347l.0755004.3653622c.0639555.3044278.1315969.6073098.2110966.897815.1941863 1.4009073.0294489 2.8294005-.4780799 4.1455915-.0229689.0715632-.0110448.1500533.032071.2111065s.1122055.0972808.1858231.0974376h5.8022349c.6095897 0 1.1942123.2477686 1.6252573.6887995.431045.4410308.6732037 1.0391971.6732037 1.6629089 0 .8488318-.4468256 1.6318622-1.169457 2.0488083.2659442.5020897.3223013 1.0928313.156272 1.6380629-.1660293.5452317-.5403538.9986789-1.0379616 1.2573605.4996727 1.0396246.090005 2.2970994-.9193844 2.8220501.1400817.2911742.2127518.6114419.2123778.9359799 0 .6114442-.2684603 1.6461959-2.0686149 1.6461959h-5.9759985c-1.271699.0067839-2.5396334-.1419581-3.7768311-.4430619-.2813316-.0611444-.5792121-.1241702-.9074324-.1881367-.2162298-.0428153-.3723508-.2365315-.3723508-.4618755v-9.5159528c0-.1547463.0741101-.2996656.1985872-.3875615 1.7514273-1.2369986 3.7087966-4.0590487 3.7087966-6.6421652-.0361178-.9448147-.3705741-3.7531599 1.5649902-3.7531599z" fill="#c0a574"/></svg>